HIERARCHY
ROOT ui
{
	 OFFSET 0 0 0
	 CHANNELS 3 XPosition YPosition Z Position
	 EndSite
	 {
	 OFFSET 0 -1 0
	 }
}
ROOT li
{
	 OFFSET 0 0 0
	 CHANNELS 3 XPosition YPosition Z Position
	 EndSite
	 {
	 OFFSET 0 -1 0
	 }
}
ROOT ul
{
	 OFFSET 0 0 0
	 CHANNELS 3 XPosition YPosition Z Position
	 EndSite
	 {
	 OFFSET 0 -1 0
	 }
}
ROOT ll
{
	 OFFSET 0 0 0
	 CHANNELS 3 XPosition YPosition Z Position
	 EndSite
	 {
	 OFFSET 0 -1 0
	 }
}
ROOT tt
{
	 OFFSET 0 0 0
	 CHANNELS 3 XPosition YPosition Z Position
	 EndSite
	 {
	 OFFSET 0 -1 0
	 }
}
ROOT tb
{
	 OFFSET 0 0 0
	 CHANNELS 3 XPosition YPosition Z Position
	 EndSite
	 {
	 OFFSET 0 -1 0
	 }
}
ROOT td
{
	 OFFSET 0 0 0
	 CHANNELS 3 XPosition YPosition Z Position
	 EndSite
	 {
	 OFFSET 0 -1 0
	 }
}
ROOT v
{
	 OFFSET 0 0 0
	 CHANNELS 3 XPosition YPosition Z Position
	 EndSite
	 {
	 OFFSET 0 -1 0
	 }
}
ROOT bn
{
	 OFFSET 0 0 0
	 CHANNELS 3 XPosition YPosition Z Position
	 EndSite
	 {
	 OFFSET 0 -1 0
	 }
}
MOTION
Frames: 10
Frame Time: 0.002
0.06893557739257812	-0.0034560699462890627	0		0.5698150634765625	-2.626230224609375	0		-0.863956787109375	0.278510009765625	0		-0.4085433349609375	-2.97765576171875	0		1.915909423828125	-1.09016552734375	0		3.468251220703125	-0.5432918701171875	0		4.76739208984375	-0.4096822509765625	0		5.83759619140625	0.3324148864746094	0		-0.14696104431152343	5.9634345703125	0		
-0.004843541145324707	0.002640192985534668	0		0.5719359741210938	-2.624279296875	0		-0.8538300170898437	0.2773673095703125	0		-0.3415555419921875	-2.984658447265625	0		1.9176240234375	-1.117235107421875	0		3.50265771484375	-0.5918801879882812	0		4.78438623046875	-0.4190287780761719	0		5.85473779296875	0.33204833984375	0		-0.16188002014160155	5.95265380859375	0		
0.02136093521118164	0.0012379900217056275	0		0.5700734252929688	-2.626274169921875	0		-0.8595263061523437	0.2824615173339844	0		-0.3794366455078125	-2.987094970703125	0		1.9135087890625	-1.1382261962890625	0		3.499793212890625	-0.5969213256835938	0		4.78124072265625	-0.4430947570800781	0		5.8501025390625	0.34098611450195315	0		-0.16153260803222655	5.95264453125	0		
-0.0073885488510131835	-0.0013443859815597534	0		0.577106689453125	-2.639408447265625	0		-0.8272908935546875	0.2779854431152344	0		-0.3415055236816406	-3.0066708984375	0		1.9215477294921874	-1.15340771484375	0		3.50466552734375	-0.6240946655273437	0		4.79252099609375	-0.44339193725585935	0		5.84628369140625	0.33288916015625	0		-0.16208213806152344	5.95364599609375	0		
-0.007043160915374756	-0.0013653630018234254	0		0.5914400634765625	-2.635656005859375	0		-0.8269380493164062	0.2779863891601563	0		-0.3891148986816406	-2.99796240234375	0		1.9273056640625	-1.1905662841796876	0		3.507798583984375	-0.6372532348632812	0		4.796673828125	-0.45560006713867185	0		5.8607412109375	0.3395003967285156	0		-0.16059254455566407	5.9526142578125	0		
-0.03264290237426758	1.2829999905079604E-6	0		0.58349072265625	-2.65257568359375	0		-0.8584838256835937	0.28246685791015624	0		-0.34706533813476564	-3.014606689453125	0		1.9263824462890624	-1.2086300048828125	0		3.546660888671875	-0.67096337890625	0		4.8087705078125	-0.4739429016113281	0		5.86113330078125	0.3393052978515625	0		-0.14488853454589845	5.9623671875	0		
0.0017287000417709351	-0.002538532018661499	0		0.5609228515625	-2.645275634765625	0		-0.848085693359375	0.281314453125	0		-0.367810546875	-3.018306640625	0		1.9585208740234374	-1.2241986083984375	0		3.520305419921875	-0.6536954345703125	0		4.8091611328125	-0.4741192321777344	0		5.85668603515625	0.3481709289550781	0		-0.14428401184082032	5.96334326171875	0		
-0.0027761800289154053	0.002505831003189087	0		0.600237548828125	-2.64691357421875	0		-0.8165855712890625	0.28584176635742187	0		-0.35049020385742186	-3.01858251953125	0		1.988504150390625	-1.2507425537109376	0		3.525022705078125	-0.6989093017578125	0		4.80547509765625	-0.4802428283691406	0		5.8571162109375	0.34795260620117185	0		-0.1938948974609375	5.94907470703125	0		
-0.002351421117782593	0.002473613977432251	0		0.58041162109375	-2.6576611328125	0		-0.8212116088867187	0.28191229248046873	0		-0.34540682983398435	-3.03467724609375	0		1.9817374267578125	-1.260732421875	0		3.532302490234375	-0.7071615600585938	0		4.8193671875	-0.5146398315429688	0		5.852431640625	0.3398062438964844	0		-0.1932764892578125	5.949048828125	0		
-0.009033301353454589	-0.004452603816986084	0		0.6056712646484375	-2.663092041015625	0		-0.820779052734375	0.2819051818847656	0		-0.3383090209960937	-3.04980419921875	0		1.9757568359375	-1.2847353515625	0		3.570349853515625	-0.73088232421875	0		4.8297275390625	-0.51797900390625	0		5.85798681640625	0.34750860595703126	0		-0.15859048461914063	5.9535048828125	0		
